<svg width="18" height="18" viewBox="0 0 18 18" fill="none" xmlns="http://www.w3.org/2000/svg">
<path d="M7.66645 16.3333C7.66645 16.5101 7.59621 16.6797 7.47119 16.8047C7.34617 16.9298 7.17661 17 6.9998 17H1.66664C1.48984 17 1.32028 16.9298 1.19526 16.8047C1.07024 16.6797 1 16.5101 1 16.3333V1.66667C1 1.48986 1.07024 1.32029 1.19526 1.19526C1.32028 1.07024 1.48984 1 1.66664 1H6.9998C7.17661 1 7.34617 1.07024 7.47119 1.19526C7.59621 1.32029 7.66645 1.48986 7.66645 1.66667C7.66645 1.84348 7.59621 2.01305 7.47119 2.13807C7.34617 2.2631 7.17661 2.33333 6.9998 2.33333H2.33329V15.6667H6.9998C7.17661 15.6667 7.34617 15.7369 7.47119 15.8619C7.59621 15.987 7.66645 16.1565 7.66645 16.3333ZM16.8045 8.52833L13.4713 5.195C13.3462 5.06991 13.1765 4.99963 12.9996 4.99963C12.8227 4.99963 12.653 5.06991 12.528 5.195C12.4029 5.32009 12.3326 5.48976 12.3326 5.66667C12.3326 5.84358 12.4029 6.01324 12.528 6.13833L14.7237 8.33333H6.9998C6.823 8.33333 6.65343 8.40357 6.52841 8.5286C6.40339 8.65362 6.33316 8.82319 6.33316 9C6.33316 9.17681 6.40339 9.34638 6.52841 9.47141C6.65343 9.59643 6.823 9.66667 6.9998 9.66667H14.7237L12.528 11.8617C12.4029 11.9868 12.3326 12.1564 12.3326 12.3333C12.3326 12.5102 12.4029 12.6799 12.528 12.805C12.653 12.9301 12.8227 13.0004 12.9996 13.0004C13.1765 13.0004 13.3462 12.9301 13.4713 12.805L16.8045 9.47167C16.8665 9.40975 16.9156 9.33623 16.9492 9.25529C16.9827 9.17436 17 9.08761 17 9C17 8.91239 16.9827 8.82564 16.9492 8.74471C16.9156 8.66377 16.8665 8.59025 16.8045 8.52833Z" fill="#FF0006" stroke="#FF0006"/>
</svg>
